<svg xmlns="http://www.w3.org/2000/svg" viewBox="0 0 240 240" role="img" aria-label="The expedition sailing cutter"><title>The expedition sailing cutter</title><g stroke="#223344" stroke-width="2.7" stroke-linecap="round" stroke-linejoin="round"><path d="M26 157 68 205H167L209 157Z" fill="#b57149"/><path d="m38 170 24 22H173L195 170" fill="#fff5d9"/><path d="M115 40V168M66 84H177" fill="none" stroke-width="5"/><path d="M106 46Q75 61 70 145H106ZM124 50Q142 74 175 143H124Z" fill="#fff5d9"/><path d="M118 29 153 37 118 46Z" fill="#e8583f"/><path d="M80 91H100M81 115H100M130 104H148M130 127H161" fill="none" stroke-width="1.2"/><path d="M36 157 66 93M196 157 173 87" fill="none"/><circle cx="88" cy="181" r="4" fill="#223344"/><circle cx="121" cy="181" r="4" fill="#223344"/><circle cx="154" cy="181" r="4" fill="#223344"/></g></svg>