<svg id="Layer_1" data-name="Layer 1" xmlns="http://www.w3.org/2000/svg" viewBox="0 0 381 134">
<defs>
    <style>
      .cls-1 {
        fill: #fff;
      }
    </style>
  </defs>
<title>Saito Redsquare outline Horizontal Label Icon</title>
<g transform="translate(2 22.6903) scale(0.2552) translate(-297.75 -322.5)">
  <g transform="translate(376 326.42) scale(0.7933) translate(-336.67 -298.45)">
    <path class="cls-1" d="M599.29,683.87l-78.56,45.38-78.49-45.31-.15-29.74-26.89,15.48-78.53-45.33v-90.68s28.75-16.77,28.75-16.77l-28.75-16.75v-90.69s78.51-45.33,78.51-45.33l26.94,15.49.07-35.33,78.54-45.34,78.5,45.33.06,37.18,30.05-17.34,78.58,45.38-.03,90.72-28.84,16.67,28.84,16.77.02,90.67-78.56,45.36-30.07-17.31v31.5ZM581.01,347.08l-60.27-34.81-60.34,34.87,60.26,34.81,60.35-34.87ZM493.79,438.49l21.09-12.18-.05-34.4-61.07-35.2-.07,29.6,40.07,23.13.03,29.05ZM550.73,440.08l.08-30.64,36.94-21.34v-31.34s-61.23,35.33-61.23,35.33l-.04,34.02,24.25,13.97ZM415.18,447.12l60.28-34.89-60.23-34.79-60.38,34.86,60.33,34.82ZM629.28,447.12l60.31-34.9-60.28-34.8-60.3,34.88,60.27,34.81ZM598.05,506.22l25.57-14.67v-34.34s-61.25-35.37-61.25-35.37v25.01s35.51,20.47,35.51,20.47l.17,38.9ZM409.39,528.75l.11-71.57-61.27-35.34-.06,71.68,61.22,35.22ZM443.76,467.38l38.51-22.23-.07-23.18-61.19,35.3.08,71.54,22.67-13.04v-48.38ZM667.52,510.23l28.86-16.76-.05-71.52-61.1,35.24v34.49s32.28,18.55,32.28,18.55ZM520.89,588.77l66.53-38.47-.06-76.85-66.52-38.39-66.58,38.45v76.83s66.63,38.43,66.63,38.43ZM629.32,571.21l60.26-34.85-60.25-34.8-31.36,18.11-.07,33.46,31.41,18.08ZM443.66,529.2l-28.46,16.34-38.09-21.98-22.24,12.86,60.26,34.8,28.67-16.55-.14-25.48ZM409.41,652.91l.11-71.58-61.29-35.34-.06,71.69,61.23,35.23ZM696.42,617.61l-.11-71.52-61.1,35.23.05,71.6,61.15-35.31ZM599.3,639.04l24.33,13.99-.02-71.73-34.38-19.83-22.36,12.94,32.38,18.69.05,45.94ZM442.21,593.1l32.5-18.73-20.74-12-32.96,19.04.03,71.53,21.1-12.07.08-47.76ZM580.98,595.91l-25.74-14.82-34.39,19.89-34.59-19.99-25.85,15,60.23,34.8,60.33-34.89ZM514.83,712.48l.06-71.69-61.16-35.27-.06,71.68,61.15,35.27ZM526.52,712.53l61.26-35.32-.07-71.57-61.23,35.3.03,71.6Z"/>
  </g>
</g>
<g transform="translate(115.855 48.7886) scale(0.5061) translate(-297.75 -718.08)">
<g>
    <path class="cls-1" d="M301.73,711.1h28.66c8.32,0,15.01,2.05,20.03,6.15s7.53,9.86,7.53,17.34c0,8.45-3.69,15.01-11.09,19.67v1.59l14.67,25.17h-19.77l-13.39-23.38h-8.5v23.38h-18.18v-69.92h.05ZM330,742.45c2.92,0,5.3-.64,7.09-1.95,1.79-1.31,2.69-3.35,2.69-6.15s-.9-4.84-2.69-6.15c-1.79-1.31-4.17-1.95-7.09-1.95h-10.09v16.19h10.09Z"/>
    <path class="cls-1" d="M372.95,778.77c-4-2.15-7.17-5.22-9.48-9.19-2.33-3.97-3.48-8.48-3.48-13.52s1.2-9.55,3.64-13.5c2.43-3.92,5.66-6.99,9.68-9.19,4.02-2.2,8.35-3.3,12.93-3.3,5.2,0,9.73,1.05,13.62,3.15,3.89,2.1,6.91,5.1,9.09,8.99,2.15,3.89,3.25,8.48,3.25,13.73v3.79h-36.85c.46,2.79,1.69,5.05,3.69,6.74,2,1.69,4.53,2.54,7.58,2.54,2.66,0,4.74-.54,6.2-1.59,1.46-1.08,2.66-2.66,3.59-4.79l13.5,1.79,1,1.69c-2.07,5.45-5.17,9.48-9.35,12.04-4.17,2.56-9.27,3.84-15.34,3.84-4.87,0-9.3-1.08-13.29-3.25l.03.05ZM396.53,750.06c-.33-2.41-1.43-4.35-3.3-5.89-1.87-1.54-4.23-2.3-7.09-2.3-2.46,0-4.64.74-6.53,2.25-1.9,1.49-3.15,3.48-3.74,5.94h20.67Z"/>
    <path class="cls-1" d="M427.03,779.23c-3.76-1.87-6.91-4.76-9.45-8.68-2.54-3.92-3.79-8.76-3.79-14.5s1.25-10.63,3.79-14.52c2.54-3.89,5.79-6.79,9.73-8.63,3.97-1.87,8.07-2.79,12.34-2.79,2.87,0,5.38.38,7.53,1.15,2.15.77,4.3,1.87,6.45,3.35v-26.48h16.57v72.91h-16.57v-5.1c-1.87,2-4.02,3.51-6.51,4.53-2.46,1.02-5.4,1.54-8.78,1.54-3.79,0-7.58-.92-11.35-2.79h.03ZM450.52,765.68c2.1-1.97,3.15-4.79,3.15-8.45v-2.51c0-3.59-1.08-6.38-3.2-8.35-2.13-1.97-4.84-2.95-8.09-2.95-3.46,0-6.27,1.13-8.45,3.41-2.18,2.25-3.25,5.33-3.25,9.19s1.1,6.91,3.3,9.19c2.2,2.25,5.07,3.41,8.58,3.41,3.2,0,5.84-.97,7.94-2.95h.03Z"/>
    <path class="cls-1" d="M488.47,779.46c-3.69-1.69-6.66-4.2-8.89-7.5-2.23-3.3-3.48-7.25-3.74-11.83h6.79c1.41,10.45,7.45,15.67,18.18,15.67,5.2,0,9.32-1.46,12.4-4.35,3.07-2.89,4.58-6.63,4.58-11.24,0-2.79-.59-5.12-1.79-6.99s-3.15-3.43-5.84-4.69c-2.69-1.25-6.4-2.43-11.14-3.48-7.07-1.54-12.27-3.79-15.62-6.74-3.36-2.97-5.05-6.81-5.05-11.52,0-3.2.9-6.07,2.69-8.63,1.79-2.56,4.25-4.53,7.4-5.94,3.12-1.41,6.58-2.1,10.4-2.1,6.25,0,11.42,1.59,15.49,4.79,4.07,3.2,6.35,7.68,6.89,13.5h-6.51c-.46-3.79-2.15-6.76-5.05-8.89s-6.51-3.2-10.83-3.2-7.53.92-9.99,2.79c-2.46,1.87-3.69,4.35-3.69,7.5,0,3.33,1.41,5.92,4.25,7.73,2.82,1.84,7.53,3.51,14.14,5.05,7.53,1.74,12.91,4.15,16.19,7.25,3.25,3.1,4.89,7.53,4.89,13.34,0,4.33-1.02,8.17-3.1,11.52-2.07,3.35-4.89,5.97-8.5,7.79-3.59,1.82-7.66,2.74-12.19,2.74s-8.63-.85-12.34-2.54l-.03-.03Z"/>
    <path class="cls-1" d="M567.12,774.72c-2.13,2.2-4.61,3.97-7.45,5.3-2.84,1.33-5.84,2-9.04,2-4.12,0-7.89-1.02-11.24-3.05s-6.04-5.02-8.04-8.94-3-8.58-3-13.98.97-10.06,2.95-13.98c1.97-3.92,4.66-6.91,8.09-8.94,3.43-2.02,7.27-3.05,11.52-3.05,6.74,0,12.11,2.54,16.19,7.58v-6.58h6.2v69.92h-6.2v-26.28h.03ZM559.62,774.13c2.41-1.41,4.25-3.28,5.53-5.63,1.31-2.36,1.95-5.02,1.95-7.94v-9.09c0-2.74-.59-5.28-1.74-7.63-1.18-2.36-2.95-4.28-5.35-5.74-2.41-1.46-5.3-2.2-8.68-2.2-5.4,0-9.53,1.74-12.45,5.2-2.89,3.46-4.35,8.45-4.35,14.98s1.51,11.35,4.53,14.88c3.02,3.53,7.12,5.3,12.24,5.3,3.12,0,5.89-.69,8.3-2.1l.03-.03Z"/>
    <path class="cls-1" d="M585.61,777.77c-2.87-2.82-4.3-6.86-4.3-12.14v-34.55h6.2v34.27c0,3.33,1,5.97,3,7.94,2,1.97,4.79,2.95,8.4,2.95,3.2,0,6.27-1.1,9.25-3.3,2.97-2.2,5.35-5.07,7.15-8.58v-33.27h6.2v49.94h-6.2v-8.4c-1.59,2.46-4.02,4.64-7.3,6.53-3.25,1.9-6.76,2.84-10.5,2.84-5.07,0-9.01-1.41-11.88-4.25v.03Z"/>
    <path class="cls-1" d="M631.56,777.92c-2.74-2.74-4.1-6.33-4.1-10.78s1.61-8.2,4.84-10.83,7.3-4.17,12.24-4.64l15.49-1.59v-2.1c0-8.07-4.12-12.09-12.4-12.09-3.12,0-5.74.85-7.79,2.54-2.07,1.69-3.25,3.97-3.59,6.84h-6.2c.41-5.07,2.36-8.86,5.84-11.4,3.48-2.54,7.48-3.79,11.93-3.79,5.79,0,10.3,1.56,13.52,4.69,3.23,3.12,4.84,7.45,4.84,12.98v23.07c0,1.66.36,2.95,1.1,3.84s1.82,1.36,3.3,1.36c.87,0,1.74-.13,2.59-.41v4.99c-1.33.67-2.92,1-4.79,1-2.46,0-4.43-.79-5.89-2.36-1.46-1.56-2.3-3.48-2.51-5.74-5.12,5.66-10.88,8.5-17.29,8.5-4.74,0-8.45-1.36-11.19-4.1h.03ZM660.01,766.24v-10.88l-13.68,1.41c-3.92.41-7.02,1.49-9.3,3.25-2.25,1.77-3.41,4.15-3.41,7.15,0,2.66.9,4.84,2.69,6.53,1.79,1.69,4.2,2.54,7.2,2.54,6.33,0,11.81-3.33,16.47-9.99h.03Z"/>
    <path class="cls-1" d="M677.99,731.08h6.2v7.5c1.41-2.33,3.38-4.33,5.94-5.99s5.3-2.51,8.25-2.51c1.92,0,3.36.26,4.3.79l-1.1,5.3c-.79-.2-1.97-.31-3.48-.31-2.74,0-5.4,1.02-7.99,3.05-2.59,2.02-4.56,4.64-5.89,7.84v34.27h-6.2v-49.94h-.03Z"/>
    <path class="cls-1" d="M713.46,778.77c-3.59-2.15-6.4-5.2-8.4-9.14-2-3.92-3-8.45-3-13.57s1.05-9.58,3.15-13.52c2.1-3.97,4.97-7.02,8.58-9.19,3.64-2.15,7.61-3.25,11.93-3.25s8.2.97,11.63,2.89c3.43,1.92,6.12,4.74,8.09,8.4,1.97,3.66,2.95,7.96,2.95,12.88v3h-39.54c.08,5.66,1.69,10.24,4.84,13.73,3.15,3.51,7.25,5.25,12.24,5.25,4.4,0,7.73-1.02,10.04-3.05s3.94-4.71,4.94-8.04h6.2c-1.33,5.25-3.79,9.4-7.35,12.4-3.56,3-8.22,4.48-13.93,4.48-4.66,0-8.78-1.08-12.4-3.25h.02ZM742.22,752.05c-.08-2.92-.79-5.63-2.2-8.14-1.41-2.51-3.36-4.46-5.84-5.89-2.51-1.43-5.3-2.15-8.45-2.15-4.74,0-8.58,1.51-11.58,4.51s-4.76,6.89-5.3,11.68h33.37Z"/>
  </g>
</g>
</svg>
