<svg xmlns="http://www.w3.org/2000/svg" viewBox="0 0 320 450" role="img" aria-label="Treasures of the mountain"><title>Treasures of the mountain</title><g stroke="#223344" stroke-width="2.7" stroke-linecap="round" stroke-linejoin="round"><rect x="3" y="3" width="314" height="444" rx="18" fill="#fff5d9"/><rect x="13" y="13" width="294" height="424" rx="10" fill="none" stroke-width="1"/><path d="M17 65H303" fill="none" stroke-width="1.3"/><circle cx="38" cy="39" r="10" fill="#8fa6b1"/><path d="m34 40 3 3 6-8" fill="none" stroke="#fff5d9" stroke-width="2"/><g fill="#223344" stroke="none" font-family="Georgia,serif"><text x="60" y="44" font-size="16" letter-spacing="3">SETTLERS X</text><text x="278" y="43" font-size="11" text-anchor="middle">05</text></g><g transform="translate(25 80) scale(1.125)"><rect width="240" height="240" rx="24" fill="#bde6e0"/><circle cx="180" cy="43" r="22" fill="#efbc47" stroke="none"/><path transform="translate(16 42) scale(0.7)" d="M0 16 Q-7 6 6 5 Q11-12 26-4 Q39-14 47 2 Q64 0 65 16Z" fill="#fff5d9" stroke-width="1.7"/><path d="M0 135Q45 93 106 131Q168 91 240 134V240H0Z" fill="#a2acac"/><path d="M0 176Q89 126 156 164Q202 144 240 164V240H0Z" fill="#b8b6a1"/><path d="M15 163 65 57 112 136 151 41 230 165Z" fill="#859eaa"/><path d="m47 95 18-38 22 37-13-8-10 13-7-13ZM128 81 23-40 28 44-19-7-8 12-10-17Z" fill="#fff5d9"/><path d="M129 166V143Q151 111 174 143V166Z" fill="#354756"/><path d="M119 166V137L151 115 183 137V166M127 131 137 143M175 132 166 143" fill="none" stroke="#b88756" stroke-width="7"/><path d="M151 157 110 229M161 157 150 229M135 183 150 185M125 202 146 205M116 217 146 220" fill="none" stroke-width="3"/><g transform="translate(49 195) scale(0.7)"><path d="M-31 14-25-12-5-29 20-20 33 4 21 24-10 28Z" fill="#9aaebb"/><path d="M-25-12-4-6-5-29M-4-6 20-20M-4-6 5 17 33 4M5 17-10 28M-31 14-4-6" fill="none"/><path d="m7-14 5-1 3 5-6 2Z" fill="#fff5d9" stroke="none"/></g><g transform="translate(195 198) scale(0.9)"><path d="M-31 14-25-12-5-29 20-20 33 4 21 24-10 28Z" fill="#9aaebb"/><path d="M-25-12-4-6-5-29M-4-6 20-20M-4-6 5 17 33 4M5 17-10 28M-31 14-4-6" fill="none"/><path d="m7-14 5-1 3 5-6 2Z" fill="#fff5d9" stroke="none"/></g></g><path d="M28 365H292" fill="none" stroke-width="1"/><g fill="#223344" stroke="none" text-anchor="middle"><text x="160" y="390" font-family="Georgia,serif" font-size="21" font-weight="bold">ORE</text><text x="160" y="414" font-family="Arial,sans-serif" font-size="8" letter-spacing="1.2">TREASURES OF THE MOUNTAIN</text></g></g></svg>