<svg xmlns="http://www.w3.org/2000/svg" width="960" height="540" viewBox="0 0 960 540" shape-rendering="crispEdges"><rect width="960" height="540" fill="#080e1b"/><rect y="340" width="960" height="200" fill="#101b2b"/><rect x="0" y="0" width="2" height="2" fill="#a3cecf"/><rect x="137" y="61" width="2" height="2" fill="#3a5368"/><rect x="274" y="122" width="2" height="2" fill="#3a5368"/><rect x="411" y="183" width="2" height="2" fill="#a3cecf"/><rect x="548" y="244" width="2" height="2" fill="#3a5368"/><rect x="685" y="15" width="2" height="2" fill="#3a5368"/><rect x="822" y="76" width="2" height="2" fill="#a3cecf"/><rect x="959" y="137" width="2" height="2" fill="#3a5368"/><rect x="136" y="198" width="2" height="2" fill="#3a5368"/><rect x="273" y="259" width="2" height="2" fill="#a3cecf"/><rect x="410" y="30" width="2" height="2" fill="#3a5368"/><rect x="547" y="91" width="2" height="2" fill="#3a5368"/><rect x="684" y="152" width="2" height="2" fill="#a3cecf"/><rect x="821" y="213" width="2" height="2" fill="#3a5368"/><rect x="958" y="274" width="2" height="2" fill="#3a5368"/><rect x="135" y="45" width="2" height="2" fill="#a3cecf"/><rect x="272" y="106" width="2" height="2" fill="#3a5368"/><rect x="409" y="167" width="2" height="2" fill="#3a5368"/><rect x="546" y="228" width="2" height="2" fill="#a3cecf"/><rect x="683" y="289" width="2" height="2" fill="#3a5368"/><rect x="820" y="60" width="2" height="2" fill="#3a5368"/><rect x="957" y="121" width="2" height="2" fill="#a3cecf"/><rect x="134" y="182" width="2" height="2" fill="#3a5368"/><rect x="271" y="243" width="2" height="2" fill="#3a5368"/><rect x="408" y="14" width="2" height="2" fill="#a3cecf"/><rect x="545" y="75" width="2" height="2" fill="#3a5368"/><rect x="682" y="136" width="2" height="2" fill="#3a5368"/><rect x="819" y="197" width="2" height="2" fill="#a3cecf"/><rect x="956" y="258" width="2" height="2" fill="#3a5368"/><rect x="133" y="29" width="2" height="2" fill="#3a5368"/><rect x="270" y="90" width="2" height="2" fill="#a3cecf"/><rect x="407" y="151" width="2" height="2" fill="#3a5368"/><rect x="544" y="212" width="2" height="2" fill="#3a5368"/><rect x="681" y="273" width="2" height="2" fill="#a3cecf"/><rect x="818" y="44" width="2" height="2" fill="#3a5368"/><rect x="955" y="105" width="2" height="2" fill="#3a5368"/><rect x="132" y="166" width="2" height="2" fill="#a3cecf"/><rect x="269" y="227" width="2" height="2" fill="#3a5368"/><rect x="406" y="288" width="2" height="2" fill="#3a5368"/><rect x="543" y="59" width="2" height="2" fill="#a3cecf"/><rect x="680" y="120" width="2" height="2" fill="#3a5368"/><rect x="817" y="181" width="2" height="2" fill="#3a5368"/><rect x="954" y="242" width="2" height="2" fill="#a3cecf"/><rect x="131" y="13" width="2" height="2" fill="#3a5368"/><rect x="268" y="74" width="2" height="2" fill="#3a5368"/><rect x="405" y="135" width="2" height="2" fill="#a3cecf"/><rect x="542" y="196" width="2" height="2" fill="#3a5368"/><rect x="679" y="257" width="2" height="2" fill="#3a5368"/><rect x="816" y="28" width="2" height="2" fill="#a3cecf"/><rect x="953" y="89" width="2" height="2" fill="#3a5368"/><rect x="130" y="150" width="2" height="2" fill="#3a5368"/><rect x="267" y="211" width="2" height="2" fill="#a3cecf"/><rect x="404" y="272" width="2" height="2" fill="#3a5368"/><rect x="541" y="43" width="2" height="2" fill="#3a5368"/><rect x="678" y="104" width="2" height="2" fill="#a3cecf"/><rect x="815" y="165" width="2" height="2" fill="#3a5368"/><rect x="952" y="226" width="2" height="2" fill="#3a5368"/><rect x="129" y="287" width="2" height="2" fill="#a3cecf"/><rect x="266" y="58" width="2" height="2" fill="#3a5368"/><rect x="403" y="119" width="2" height="2" fill="#3a5368"/><rect x="540" y="180" width="2" height="2" fill="#a3cecf"/><rect x="677" y="241" width="2" height="2" fill="#3a5368"/><rect x="814" y="12" width="2" height="2" fill="#3a5368"/><rect x="951" y="73" width="2" height="2" fill="#a3cecf"/><rect x="128" y="134" width="2" height="2" fill="#3a5368"/><rect x="265" y="195" width="2" height="2" fill="#3a5368"/><rect x="402" y="256" width="2" height="2" fill="#a3cecf"/><rect x="539" y="27" width="2" height="2" fill="#3a5368"/><rect x="676" y="88" width="2" height="2" fill="#3a5368"/><rect x="813" y="149" width="2" height="2" fill="#a3cecf"/><rect x="950" y="210" width="2" height="2" fill="#3a5368"/><rect x="127" y="271" width="2" height="2" fill="#3a5368"/><rect x="264" y="42" width="2" height="2" fill="#a3cecf"/><rect x="401" y="103" width="2" height="2" fill="#3a5368"/><rect x="538" y="164" width="2" height="2" fill="#3a5368"/><rect x="675" y="225" width="2" height="2" fill="#a3cecf"/><rect x="812" y="286" width="2" height="2" fill="#3a5368"/><rect x="949" y="57" width="2" height="2" fill="#3a5368"/><rect x="126" y="118" width="2" height="2" fill="#a3cecf"/><rect x="263" y="179" width="2" height="2" fill="#3a5368"/><rect x="400" y="240" width="2" height="2" fill="#3a5368"/><rect x="537" y="11" width="2" height="2" fill="#a3cecf"/><rect x="674" y="72" width="2" height="2" fill="#3a5368"/><rect x="811" y="133" width="2" height="2" fill="#3a5368"/><rect x="948" y="194" width="2" height="2" fill="#a3cecf"/><rect x="125" y="255" width="2" height="2" fill="#3a5368"/><rect x="262" y="26" width="2" height="2" fill="#3a5368"/><rect x="399" y="87" width="2" height="2" fill="#a3cecf"/><rect x="536" y="148" width="2" height="2" fill="#3a5368"/><rect x="673" y="209" width="2" height="2" fill="#3a5368"/><rect x="0" y="300" width="48" height="40" fill="#1b2a3a"/><rect x="8" y="308" width="5" height="3" fill="#456273"/><rect x="8" y="331" width="5" height="3" fill="#456273"/><rect x="8" y="354" width="5" height="3" fill="#456273"/><rect x="8" y="377" width="5" height="3" fill="#456273"/><rect x="8" y="400" width="5" height="3" fill="#456273"/><rect x="60" y="253" width="48" height="87" fill="#1b2a3a"/><rect x="68" y="261" width="5" height="3" fill="#456273"/><rect x="68" y="284" width="5" height="3" fill="#456273"/><rect x="68" y="307" width="5" height="3" fill="#456273"/><rect x="68" y="330" width="5" height="3" fill="#456273"/><rect x="68" y="353" width="5" height="3" fill="#456273"/><rect x="120" y="206" width="48" height="134" fill="#1b2a3a"/><rect x="128" y="214" width="5" height="3" fill="#456273"/><rect x="128" y="237" width="5" height="3" fill="#456273"/><rect x="128" y="260" width="5" height="3" fill="#456273"/><rect x="128" y="283" width="5" height="3" fill="#456273"/><rect x="128" y="306" width="5" height="3" fill="#456273"/><rect x="180" y="289" width="48" height="51" fill="#1b2a3a"/><rect x="188" y="297" width="5" height="3" fill="#456273"/><rect x="188" y="320" width="5" height="3" fill="#456273"/><rect x="188" y="343" width="5" height="3" fill="#456273"/><rect x="188" y="366" width="5" height="3" fill="#456273"/><rect x="188" y="389" width="5" height="3" fill="#456273"/><rect x="240" y="242" width="48" height="98" fill="#1b2a3a"/><rect x="248" y="250" width="5" height="3" fill="#456273"/><rect x="248" y="273" width="5" height="3" fill="#456273"/><rect x="248" y="296" width="5" height="3" fill="#456273"/><rect x="248" y="319" width="5" height="3" fill="#456273"/><rect x="248" y="342" width="5" height="3" fill="#456273"/><rect x="300" y="195" width="48" height="145" fill="#1b2a3a"/><rect x="308" y="203" width="5" height="3" fill="#456273"/><rect x="308" y="226" width="5" height="3" fill="#456273"/><rect x="308" y="249" width="5" height="3" fill="#456273"/><rect x="308" y="272" width="5" height="3" fill="#456273"/><rect x="308" y="295" width="5" height="3" fill="#456273"/><rect x="360" y="278" width="48" height="62" fill="#1b2a3a"/><rect x="368" y="286" width="5" height="3" fill="#456273"/><rect x="368" y="309" width="5" height="3" fill="#456273"/><rect x="368" y="332" width="5" height="3" fill="#456273"/><rect x="368" y="355" width="5" height="3" fill="#456273"/><rect x="368" y="378" width="5" height="3" fill="#456273"/><rect x="420" y="231" width="48" height="109" fill="#1b2a3a"/><rect x="428" y="239" width="5" height="3" fill="#456273"/><rect x="428" y="262" width="5" height="3" fill="#456273"/><rect x="428" y="285" width="5" height="3" fill="#456273"/><rect x="428" y="308" width="5" height="3" fill="#456273"/><rect x="428" y="331" width="5" height="3" fill="#456273"/><rect x="480" y="184" width="48" height="156" fill="#1b2a3a"/><rect x="488" y="192" width="5" height="3" fill="#456273"/><rect x="488" y="215" width="5" height="3" fill="#456273"/><rect x="488" y="238" width="5" height="3" fill="#456273"/><rect x="488" y="261" width="5" height="3" fill="#456273"/><rect x="488" y="284" width="5" height="3" fill="#456273"/><rect x="540" y="267" width="48" height="73" fill="#1b2a3a"/><rect x="548" y="275" width="5" height="3" fill="#456273"/><rect x="548" y="298" width="5" height="3" fill="#456273"/><rect x="548" y="321" width="5" height="3" fill="#456273"/><rect x="548" y="344" width="5" height="3" fill="#456273"/><rect x="548" y="367" width="5" height="3" fill="#456273"/><rect x="600" y="220" width="48" height="120" fill="#1b2a3a"/><rect x="608" y="228" width="5" height="3" fill="#456273"/><rect x="608" y="251" width="5" height="3" fill="#456273"/><rect x="608" y="274" width="5" height="3" fill="#456273"/><rect x="608" y="297" width="5" height="3" fill="#456273"/><rect x="608" y="320" width="5" height="3" fill="#456273"/><rect x="660" y="173" width="48" height="167" fill="#1b2a3a"/><rect x="668" y="181" width="5" height="3" fill="#456273"/><rect x="668" y="204" width="5" height="3" fill="#456273"/><rect x="668" y="227" width="5" height="3" fill="#456273"/><rect x="668" y="250" width="5" height="3" fill="#456273"/><rect x="668" y="273" width="5" height="3" fill="#456273"/><rect x="720" y="256" width="48" height="84" fill="#1b2a3a"/><rect x="728" y="264" width="5" height="3" fill="#456273"/><rect x="728" y="287" width="5" height="3" fill="#456273"/><rect x="728" y="310" width="5" height="3" fill="#456273"/><rect x="728" y="333" width="5" height="3" fill="#456273"/><rect x="728" y="356" width="5" height="3" fill="#456273"/><rect x="780" y="209" width="48" height="131" fill="#1b2a3a"/><rect x="788" y="217" width="5" height="3" fill="#456273"/><rect x="788" y="240" width="5" height="3" fill="#456273"/><rect x="788" y="263" width="5" height="3" fill="#456273"/><rect x="788" y="286" width="5" height="3" fill="#456273"/><rect x="788" y="309" width="5" height="3" fill="#456273"/><rect x="840" y="292" width="48" height="48" fill="#1b2a3a"/><rect x="848" y="300" width="5" height="3" fill="#456273"/><rect x="848" y="323" width="5" height="3" fill="#456273"/><rect x="848" y="346" width="5" height="3" fill="#456273"/><rect x="848" y="369" width="5" height="3" fill="#456273"/><rect x="848" y="392" width="5" height="3" fill="#456273"/><rect x="900" y="245" width="48" height="95" fill="#1b2a3a"/><rect x="908" y="253" width="5" height="3" fill="#456273"/><rect x="908" y="276" width="5" height="3" fill="#456273"/><rect x="908" y="299" width="5" height="3" fill="#456273"/><rect x="908" y="322" width="5" height="3" fill="#456273"/><rect x="908" y="345" width="5" height="3" fill="#456273"/><rect x="960" y="198" width="48" height="142" fill="#1b2a3a"/><rect x="968" y="206" width="5" height="3" fill="#456273"/><rect x="968" y="229" width="5" height="3" fill="#456273"/><rect x="968" y="252" width="5" height="3" fill="#456273"/><rect x="968" y="275" width="5" height="3" fill="#456273"/><rect x="968" y="298" width="5" height="3" fill="#456273"/><path d="M0 360H960" stroke="#223348"/><path d="M0 390H960" stroke="#223348"/><path d="M0 420H960" stroke="#223348"/><path d="M0 450H960" stroke="#223348"/><path d="M0 480H960" stroke="#223348"/><path d="M0 510H960" stroke="#223348"/><path d="M480 340L-480 540" stroke="#223348"/><path d="M480 340L-400 540" stroke="#223348"/><path d="M480 340L-320 540" stroke="#223348"/><path d="M480 340L-240 540" stroke="#223348"/><path d="M480 340L-160 540" stroke="#223348"/><path d="M480 340L-80 540" stroke="#223348"/><path d="M480 340L0 540" stroke="#223348"/><path d="M480 340L80 540" stroke="#223348"/><path d="M480 340L160 540" stroke="#223348"/><path d="M480 340L240 540" stroke="#223348"/><path d="M480 340L320 540" stroke="#223348"/><path d="M480 340L400 540" stroke="#223348"/><path d="M480 340L480 540" stroke="#223348"/><path d="M480 340L560 540" stroke="#223348"/><path d="M480 340L640 540" stroke="#223348"/><path d="M480 340L720 540" stroke="#223348"/><path d="M480 340L800 540" stroke="#223348"/><path d="M480 340L880 540" stroke="#223348"/><path d="M480 340L960 540" stroke="#223348"/><path d="M480 340L1040 540" stroke="#223348"/><path d="M480 340L1120 540" stroke="#223348"/><path d="M480 340L1200 540" stroke="#223348"/><path d="M480 340L1280 540" stroke="#223348"/><path d="M480 340L1360 540" stroke="#223348"/></svg>